<svg xmlns="http://www.w3.org/2000/svg" xmlns:xlink="http://www.w3.org/1999/xlink" width="244.94" height="141.342" viewBox="0 0 244.94 141.342">
  <defs>
    <linearGradient id="linear-gradient" x1="-15.182" y1="-0.12" x2="-15.182" y2="0.602" gradientUnits="objectBoundingBox">
      <stop offset="0" stop-color="#bdbebf"/>
      <stop offset="1" stop-color="#fff"/>
    </linearGradient>
    <linearGradient id="linear-gradient-2" x1="-4.006" y1="0.565" x2="-3.635" y2="0.444" xlink:href="#linear-gradient"/>
    <linearGradient id="linear-gradient-3" x1="-4.451" y1="0.732" x2="-3.877" y2="0.125" gradientUnits="objectBoundingBox">
      <stop offset="0" stop-color="#00a550"/>
      <stop offset="1" stop-color="#008041"/>
    </linearGradient>
    <linearGradient id="linear-gradient-4" x1="-16.856" y1="0.5" x2="-15.835" y2="0.5" xlink:href="#linear-gradient-3"/>
    <linearGradient id="linear-gradient-5" x1="-2.389" y1="0.238" x2="-3.226" y2="1.104" gradientUnits="objectBoundingBox">
      <stop offset="0" stop-color="#ea1f27"/>
      <stop offset="1" stop-color="#cc2127"/>
    </linearGradient>
    <linearGradient id="linear-gradient-6" x1="32.316" y1="-0.12" x2="32.316" y2="0.602" xlink:href="#linear-gradient"/>
    <linearGradient id="linear-gradient-7" x1="10.274" y1="0.565" x2="10.644" y2="0.444" xlink:href="#linear-gradient"/>
    <linearGradient id="linear-gradient-8" x1="10.885" y1="0.732" x2="11.459" y2="0.125" xlink:href="#linear-gradient-3"/>
    <linearGradient id="linear-gradient-9" x1="36.818" y1="0.5" x2="37.839" y2="0.5" xlink:href="#linear-gradient-3"/>
    <linearGradient id="linear-gradient-10" x1="12.64" y1="0.238" x2="11.797" y2="1.104" xlink:href="#linear-gradient-5"/>
  </defs>
  <g id="Group_4633" data-name="Group 4633" transform="translate(-1619 -29.443)">
    <g id="Group_4562" data-name="Group 4562" transform="translate(1619 140.47)">
      <g id="Group_4561" data-name="Group 4561">
        <g id="Group_4559" data-name="Group 4559">
          <path id="Path_7297" data-name="Path 7297" d="M12.692,24.284a1.432,1.432,0,0,0,.693-.2.728.728,0,0,0,.2-.594,1.051,1.051,0,0,0-.892-.892.9.9,0,0,0-.693.3,1.408,1.408,0,0,0-.2.594,1.062,1.062,0,0,0,.2.594A1.432,1.432,0,0,0,12.692,24.284Z" transform="translate(-4.568 -18.538)" fill="#4c9c2e"/>
          <path id="Path_7298" data-name="Path 7298" d="M10.345,29.366v1.486h2.972v1.486H5.986v-2.18l-.892-.693L4.5,28.772v5.152H14.8V25.8C14.8,25.7,10.345,26.692,10.345,29.366Zm2.972-1.783v1.684H11.831C11.831,28.178,12.624,28.079,13.317,27.583Z" transform="translate(-4.5 -18.568)" fill="#4c9c2e"/>
          <path id="Path_7299" data-name="Path 7299" d="M27.892,24.382a.6.6,0,0,0,.594-.3.836.836,0,0,0,.2-.693,1.062,1.062,0,0,0-.2-.594.856.856,0,0,0-.594-.3.9.9,0,0,0-.693.3,1.432,1.432,0,0,0-.2.693.837.837,0,0,0,.2.594A.9.9,0,0,0,27.892,24.382Z" transform="translate(-4.71 -18.537)" fill="#4c9c2e"/>
          <path id="Path_7300" data-name="Path 7300" d="M30.193,24.383a.9.9,0,0,0,.693-.3.728.728,0,0,0,.2-.594,1.408,1.408,0,0,0-.2-.594.856.856,0,0,0-.594-.3.9.9,0,0,0-.693.3.728.728,0,0,0-.2.594,1.062,1.062,0,0,0,.2.594A.6.6,0,0,0,30.193,24.383Z" transform="translate(-4.732 -18.538)" fill="#4c9c2e"/>
          <path id="Path_7301" data-name="Path 7301" d="M26.7,29.317V30.8h2.972v1.486H17.786V20.5a4.38,4.38,0,0,1-.793.892,7.613,7.613,0,0,1-.693.594V33.775H31.16V25.652S26.7,26.642,26.7,29.317Zm2.972-1.783v1.684H28.188C28.188,28.128,28.981,28.029,29.674,27.534Z" transform="translate(-4.61 -18.519)" fill="#4c9c2e"/>
          <path id="Path_7302" data-name="Path 7302" d="M32.8,32.266v1.486h2.972s0,1.783-1.09,1.882c-.594.1-1.882-.693-1.882-.693s.892,1.585,1.882,1.585a2.469,2.469,0,0,0,2.576-2.675V28.7C37.159,28.6,32.8,29.592,32.8,32.266Zm2.972-1.684v1.684H34.286C34.187,31.177,35.079,30.979,35.772,30.582Z" transform="translate(-4.764 -18.595)" fill="#4c9c2e"/>
          <path id="Path_7303" data-name="Path 7303" d="M40.285,19.887h-.594c-.1-.1-.2-.1-.2-.2l-.2-.2c0-.1.1-.2.2-.3a6.068,6.068,0,0,0,.594-.4v-.3a7.187,7.187,0,0,0-.892.5c-.2.2-.4.3-.4.5,0,.1.1.2.2.4l-.3.1v.3h1.486v-.4Z" transform="translate(-4.819 -18.5)" fill="#4c9c2e"/>
          <path id="Path_7304" data-name="Path 7304" d="M41.672,20.5V32.289H38.7v1.486h4.458V21.887C42.366,21.59,42.167,21.392,41.672,20.5Z" transform="translate(-4.819 -18.519)" fill="#4c9c2e"/>
          <path id="Path_7305" data-name="Path 7305" d="M40.187,20.5a6.25,6.25,0,0,1-.693.991,4.955,4.955,0,0,1-.693.5V30.8h1.486V20.5Z" transform="translate(-4.819 -18.519)" fill="#4c9c2e"/>
          <path id="Path_7306" data-name="Path 7306" d="M44.7,21.887V33.676h1.486V20.5a4.38,4.38,0,0,1-.793.892A4.954,4.954,0,0,1,44.7,21.887Z" transform="translate(-4.874 -18.519)" fill="#4c9c2e"/>
          <path id="Path_7307" data-name="Path 7307" d="M47.7,32.266v1.486h2.972s0,1.783-1.09,1.882c-.594.1-1.882-.693-1.882-.693s.892,1.585,1.882,1.585a2.469,2.469,0,0,0,2.576-2.675V28.7C52.059,28.6,47.7,29.592,47.7,32.266Zm2.873-1.684v1.684H49.087C49.087,31.177,49.979,30.979,50.573,30.582Z" transform="translate(-4.902 -18.595)" fill="#4c9c2e"/>
          <path id="Path_7308" data-name="Path 7308" d="M61.893,27.685a.837.837,0,0,0,.594-.2.728.728,0,0,0,.2-.594,1.408,1.408,0,0,0-.2-.594,1.062,1.062,0,0,0-.594-.2.837.837,0,0,0-.594.2,1.408,1.408,0,0,0-.2.594,1.408,1.408,0,0,0,.2.594A.728.728,0,0,0,61.893,27.685Z" transform="translate(-5.027 -18.571)" fill="#4c9c2e"/>
          <path id="Path_7309" data-name="Path 7309" d="M59.793,27.684a.837.837,0,0,0,.594-.2.728.728,0,0,0,.2-.594,1.408,1.408,0,0,0-.2-.594.856.856,0,0,0-.594-.3.6.6,0,0,0-.594.3.728.728,0,0,0-.2.594,1.408,1.408,0,0,0,.2.594C59.3,27.684,59.5,27.684,59.793,27.684Z" transform="translate(-5.008 -18.57)" fill="#4c9c2e"/>
          <path id="Path_7310" data-name="Path 7310" d="M67.093,35.1a.6.6,0,0,0-.594.3.728.728,0,0,0-.2.594,1.432,1.432,0,0,0,.2.693.728.728,0,0,0,.594.2,1.432,1.432,0,0,0,.693-.2.9.9,0,0,0,.3-.693.856.856,0,0,0-.3-.594A1.317,1.317,0,0,0,67.093,35.1Z" transform="translate(-5.076 -18.655)" fill="#4c9c2e"/>
          <path id="Path_7311" data-name="Path 7311" d="M64.792,35.1a.9.9,0,0,0-.693.3.728.728,0,0,0-.2.594,1.432,1.432,0,0,0,.2.693.9.9,0,0,0,.693.3.6.6,0,0,0,.594-.3.836.836,0,0,0,.2-.693,1.408,1.408,0,0,0-.2-.594A.856.856,0,0,0,64.792,35.1Z" transform="translate(-5.053 -18.655)" fill="#4c9c2e"/>
          <path id="Path_7312" data-name="Path 7312" d="M69.5,32.258H67.02V27.8a4.972,4.972,0,0,1-.594.793,7.544,7.544,0,0,1-.892.693v2.972H62.958V28.593S58.5,29.682,58.5,32.258v1.486H73.856V28.593S69.4,29.682,69.5,32.258Zm-7.925,0H60.085c-.1-1.09.793-1.288,1.486-1.684Zm10.8-1.684v1.684H70.884C70.884,31.267,71.676,31.069,72.37,30.574Z" transform="translate(-5.003 -18.587)" fill="#4c9c2e"/>
          <path id="Path_7313" data-name="Path 7313" d="M76.987,20.5a6.251,6.251,0,0,1-.693.991,4.956,4.956,0,0,1-.693.5V30.8h1.387Z" transform="translate(-5.162 -18.519)" fill="#4c9c2e"/>
          <path id="Path_7314" data-name="Path 7314" d="M96.7,29.316v2.972h-.693V29.812a5.019,5.019,0,0,1-1.486.693v1.783h-.693V30.6a6.74,6.74,0,0,1-1.486.2v1.486H79.958v-10.4A3.078,3.078,0,0,1,78.472,20.4V32.189H75.5v1.486H98.286V27.731A7.659,7.659,0,0,1,96.7,29.316Z" transform="translate(-5.161 -18.518)" fill="#4c9c2e"/>
          <path id="Path_7315" data-name="Path 7315" d="M100.594,35.29c-.1-.1-.2-.1-.2-.2s.1-.2.2-.3c.2-.1.4-.3.693-.5l-.1-.1a5.842,5.842,0,0,1-.793.4c-.3.2-.3.3-.3.4s.1.2.2.4l-.3.1v.3h1.486v-.4h-.594A.364.364,0,0,1,100.594,35.29Z" transform="translate(-5.39 -18.646)" fill="#4c9c2e"/>
          <path id="Path_7316" data-name="Path 7316" d="M102.772,20.5V32.289H99.8v1.486h4.458V21.887A2.5,2.5,0,0,1,102.772,20.5Z" transform="translate(-5.388 -18.519)" fill="#4c9c2e"/>
          <path id="Path_7317" data-name="Path 7317" d="M101.387,20.5a6.249,6.249,0,0,1-.693.991,4.954,4.954,0,0,1-.693.5V30.8h1.486V20.5Z" transform="translate(-5.39 -18.519)" fill="#4c9c2e"/>
          <path id="Path_7318" data-name="Path 7318" d="M105.8,21.887V33.676h1.486V20.5a4.38,4.38,0,0,1-.793.892A4.955,4.955,0,0,1,105.8,21.887Z" transform="translate(-5.444 -18.519)" fill="#4c9c2e"/>
          <path id="Path_7319" data-name="Path 7319" d="M116.772,31.587v2.18s0,1.783-1.09,1.882c-.594.1-1.882-.693-1.882-.693s.892,1.585,1.882,1.585a2.469,2.469,0,0,0,2.576-2.675V30.2a4.276,4.276,0,0,1-.594.892C117.267,31.29,116.772,31.587,116.772,31.587Z" transform="translate(-5.518 -18.609)" fill="#4c9c2e"/>
          <path id="Path_7320" data-name="Path 7320" d="M114.793,31.784a.838.838,0,0,0,.594-.2.991.991,0,0,0,0-1.189.706.706,0,0,0-.594-.3.6.6,0,0,0-.594.3,1.062,1.062,0,0,0-.2.594,1.408,1.408,0,0,0,.2.594A1.408,1.408,0,0,0,114.793,31.784Z" transform="translate(-5.52 -18.608)" fill="#4c9c2e"/>
          <path id="Path_7321" data-name="Path 7321" d="M119.8,32.266v1.486h2.972s0,1.783-1.09,1.882c-.594.1-1.882-.693-1.882-.693s.892,1.585,1.882,1.585a2.469,2.469,0,0,0,2.576-2.675V28.7C124.159,28.6,119.8,29.592,119.8,32.266Zm2.873-1.684v1.684h-1.486C121.187,31.177,122.079,30.979,122.673,30.582Z" transform="translate(-5.574 -18.595)" fill="#4c9c2e"/>
          <path id="Path_7322" data-name="Path 7322" d="M128.687,26.788h-.594c0-.1-.2-.1-.2-.2l-.2-.2a.762.762,0,0,0,.2-.3c.2-.1.4-.3.693-.5l-.1-.1a5.84,5.84,0,0,1-.793.4c-.2.2-.3.3-.3.4s.1.2.2.4l-.3.1v.3h1.486v-.3Z" transform="translate(-5.644 -18.565)" fill="#4c9c2e"/>
          <path id="Path_7323" data-name="Path 7323" d="M146.992,28.983a.6.6,0,0,0,.594-.3.728.728,0,0,0,.2-.594,1.062,1.062,0,0,0-.2-.594.856.856,0,0,0-.594-.3.9.9,0,0,0-.693.3.728.728,0,0,0-.2.594,1.062,1.062,0,0,0,.2.594A.9.9,0,0,0,146.992,28.983Z" transform="translate(-5.819 -18.581)" fill="#4c9c2e"/>
          <path id="Path_7324" data-name="Path 7324" d="M148.093,26.883a.9.9,0,0,0,.693-.3,1.408,1.408,0,0,0,.2-.594.837.837,0,0,0-.2-.594.856.856,0,0,0-.594-.3.9.9,0,0,0-.693.3,1.408,1.408,0,0,0-.2.594.838.838,0,0,0,.2.594A.6.6,0,0,0,148.093,26.883Z" transform="translate(-5.83 -18.561)" fill="#4c9c2e"/>
          <path id="Path_7325" data-name="Path 7325" d="M148.4,28.092a1.062,1.062,0,0,0,.2.594.958.958,0,0,0,1.387,0,.728.728,0,0,0,.2-.594,1.051,1.051,0,0,0-.892-.892.9.9,0,0,0-.693.3A1.408,1.408,0,0,0,148.4,28.092Z" transform="translate(-5.84 -18.581)" fill="#4c9c2e"/>
          <path id="Path_7326" data-name="Path 7326" d="M157.2,20.5V32.288h-1.981v-10.4a2.726,2.726,0,0,1-1.486-1.486V32.189h-1.981V27.731a4.144,4.144,0,0,1-1.486,1.486v2.972h-.693V29.712a5.019,5.019,0,0,1-1.486.693v1.783H147.4V30.5a6.74,6.74,0,0,1-1.486.2v1.486H130.058V28.524s-4.458.991-4.458,3.666v1.486h2.972s0,1.783-1.09,1.882c-.594.1-1.882-.693-1.882-.693s.892,1.585,1.882,1.585a2.523,2.523,0,0,0,2.576-2.675h28.73V21.886A2.749,2.749,0,0,1,157.2,20.5Zm-28.532,11.69h-1.486c0-1.09.793-1.288,1.486-1.684Z" transform="translate(-5.628 -18.518)" fill="#4c9c2e"/>
          <path id="Path_7327" data-name="Path 7327" d="M166.593,27.684a.837.837,0,0,0,.594-.2,1.408,1.408,0,0,0,.2-.594,1.408,1.408,0,0,0-.2-.594c-.2-.2-.3-.3-.5-.3a.6.6,0,0,0-.594.3.728.728,0,0,0-.2.594,1.408,1.408,0,0,0,.2.594C166.2,27.684,166.4,27.684,166.593,27.684Z" transform="translate(-6.003 -18.57)" fill="#4c9c2e"/>
          <path id="Path_7328" data-name="Path 7328" d="M168.793,27.685a.837.837,0,0,0,.594-.2.728.728,0,0,0,.2-.594,1.408,1.408,0,0,0-.2-.594,1.062,1.062,0,0,0-.594-.2.838.838,0,0,0-.594.2,1.408,1.408,0,0,0-.2.594,1.408,1.408,0,0,0,.2.594C168.3,27.685,168.5,27.685,168.793,27.685Z" transform="translate(-6.023 -18.571)" fill="#4c9c2e"/>
          <path id="Path_7329" data-name="Path 7329" d="M171.839,32.266h-1.981V28.6s-4.458,1.09-4.458,3.666v1.486h10.9V28.6S171.74,29.69,171.839,32.266Zm-3.467,0h-1.486c-.1-1.09.793-1.288,1.486-1.684Zm6.439-1.684v1.684h-1.486C173.325,31.275,174.118,31.077,174.812,30.581Z" transform="translate(-5.999 -18.594)" fill="#4c9c2e"/>
          <path id="Path_7330" data-name="Path 7330" d="M201.476,20.5V32.289h-4.854c-.4,0-.892-.594-.892-1.09,0-.594.3-1.189.892-1.189h2.972V28.525h-2.972a2.383,2.383,0,0,0-2.378,2.576,1.28,1.28,0,0,0,.594,1.09H179.186V20.5a4.379,4.379,0,0,1-.793.892,7.615,7.615,0,0,1-.693.594V33.775h25.163V21.887A3.122,3.122,0,0,1,201.476,20.5Z" transform="translate(-6.113 -18.519)" fill="#4c9c2e"/>
          <path id="Path_7331" data-name="Path 7331" d="M204.7,21.887V33.676h1.486V20.5a4.381,4.381,0,0,1-.793.892A4.953,4.953,0,0,1,204.7,21.887Z" transform="translate(-6.365 -18.519)" fill="#4c9c2e"/>
          <path id="Path_7332" data-name="Path 7332" d="M213.793,27.684a.837.837,0,0,0,.594-.2.728.728,0,0,0,.2-.594,1.408,1.408,0,0,0-.2-.594.743.743,0,0,0-1.189,0,.728.728,0,0,0-.2.594,1.408,1.408,0,0,0,.2.594A.728.728,0,0,0,213.793,27.684Z" transform="translate(-6.442 -18.57)" fill="#4c9c2e"/>
          <path id="Path_7333" data-name="Path 7333" d="M215.993,27.685a.837.837,0,0,0,.594-.2.728.728,0,0,0,.2-.594,1.408,1.408,0,0,0-.2-.594,1.062,1.062,0,0,0-.594-.2.838.838,0,0,0-.594.2,1.408,1.408,0,0,0-.2.594,1.408,1.408,0,0,0,.2.594C215.5,27.685,215.7,27.685,215.993,27.685Z" transform="translate(-6.463 -18.571)" fill="#4c9c2e"/>
          <path id="Path_7334" data-name="Path 7334" d="M224.586,25.887h-.594c0-.1-.2-.1-.2-.2-.1-.1-.2-.1-.2-.2.1-.1.1-.2.2-.3a5.861,5.861,0,0,1,.594-.4v-.3a7.186,7.186,0,0,0-.892.5c-.3.2-.3.3-.3.5,0,.1.1.2.2.4l-.3.1v.4h1.486Z" transform="translate(-6.536 -18.556)" fill="#4c9c2e"/>
          <path id="Path_7335" data-name="Path 7335" d="M226.792,35.1a.9.9,0,0,0-.693.3.728.728,0,0,0-.2.594,1.432,1.432,0,0,0,.2.693.9.9,0,0,0,.693.3.6.6,0,0,0,.594-.3,1.432,1.432,0,0,0,.2-.693,1.408,1.408,0,0,0-.2-.594A.856.856,0,0,0,226.792,35.1Z" transform="translate(-6.562 -18.655)" fill="#4c9c2e"/>
          <path id="Path_7336" data-name="Path 7336" d="M229.092,35.1a.9.9,0,0,0-.693.3.728.728,0,0,0-.2.594,1.432,1.432,0,0,0,.2.693.836.836,0,0,0,.693.2,1.432,1.432,0,0,0,.693-.2.613.613,0,0,0,.2-.693,1.051,1.051,0,0,0-.892-.892Z" transform="translate(-6.584 -18.655)" fill="#4c9c2e"/>
          <path id="Path_7337" data-name="Path 7337" d="M246.877,20.5V32.289h-5.449a3.459,3.459,0,0,0-2.576-3.17V25.751l-.693.793-.793.594V29.02a3.154,3.154,0,0,0-2.576,3.269h-5.944V27.831a4.972,4.972,0,0,1-.594.793,7.546,7.546,0,0,1-.892.693v2.972h-2.972V27.831a4.972,4.972,0,0,1-.594.793,7.547,7.547,0,0,1-.892.693v2.972h-5.944V28.624s-4.458,1.09-4.458,3.666v1.486h35.764V21.887A3.122,3.122,0,0,1,246.877,20.5ZM215.571,32.19h-1.486c-.1-1.09.793-1.288,1.486-1.684Zm21.8,0h-1.09a1.735,1.735,0,0,1,1.09-1.684Zm1.486,0V30.506a1.831,1.831,0,0,1,1.09,1.684Z" transform="translate(-6.437 -18.519)" fill="#4c9c2e"/>
          <path id="Path_7338" data-name="Path 7338" d="M250.893,21.392a7.615,7.615,0,0,1-.693.594V33.775h1.486V20.5A3.847,3.847,0,0,0,250.893,21.392Z" transform="translate(-6.789 -18.519)" fill="#4c9c2e"/>
        </g>
        <g id="Group_4560" data-name="Group 4560" transform="translate(0.198 23.776)">
          <path id="Path_7339" data-name="Path 7339" d="M7.771,46.465h.991v1.288c-.1.1-.4.1-.693.1a1.9,1.9,0,0,1-1.981-2.08,1.85,1.85,0,0,1,2.08-1.981,3.032,3.032,0,0,1,1.486.3l.3-1.09a5.12,5.12,0,0,0-1.684-.3A3.255,3.255,0,0,0,4.7,45.969a3.138,3.138,0,0,0,.892,2.279,3.773,3.773,0,0,0,2.378.693,5.974,5.974,0,0,0,2.08-.4V45.276H7.771Z" transform="translate(-4.7 -42.502)" fill="#6e6f71"/>
          <path id="Path_7340" data-name="Path 7340" d="M12.587,46.266h2.279V45.078H12.587V43.889h2.477V42.7H11.2v6.142h3.963v-1.09H12.587Z" transform="translate(-4.761 -42.502)" fill="#6e6f71"/>
          <path id="Path_7341" data-name="Path 7341" d="M19.965,44.483a21.546,21.546,0,0,0,.1,2.576h0a13.427,13.427,0,0,0-.991-2.08L17.785,42.7H16.2v6.241h1.288V47.059a22.413,22.413,0,0,0-.1-2.675h0a22.35,22.35,0,0,0,1.09,2.18l1.288,2.378h1.486V42.7H19.965Z" transform="translate(-4.807 -42.502)" fill="#6e6f71"/>
          <path id="Path_7342" data-name="Path 7342" d="M23.987,46.266h2.279V45.078H23.987V43.889h2.378V42.7H22.6v6.142h3.864v-1.09H23.987Z" transform="translate(-4.867 -42.502)" fill="#6e6f71"/>
          <path id="Path_7343" data-name="Path 7343" d="M30.868,45.968h0a1.786,1.786,0,0,0,1.09-1.585,1.472,1.472,0,0,0-.594-1.288,2.953,2.953,0,0,0-1.981-.5c-.793,0-1.387.1-1.882.1v6.142h1.387V46.365h.4c.594,0,.793.2.991.991a12.565,12.565,0,0,0,.4,1.486h1.387c-.1-.2-.3-1.09-.5-1.783A1.218,1.218,0,0,0,30.868,45.968Zm-1.387-.5h-.594V43.789h.594c.693,0,.991.3.991.892C30.571,45.077,30.175,45.473,29.481,45.473Z" transform="translate(-4.912 -42.501)" fill="#6e6f71"/>
          <path id="Path_7344" data-name="Path 7344" d="M34.482,42.7,32.6,48.941h1.486l.4-1.585h1.783l.5,1.585h1.486L36.365,42.7Zm.3,3.566.4-1.288.3-1.189h0l.3,1.189.4,1.288Z" transform="translate(-4.96 -42.502)" fill="#6e6f71"/>
          <path id="Path_7345" data-name="Path 7345" d="M40.587,42.7H39.2v6.142h3.864v-1.09H40.587Z" transform="translate(-5.021 -42.502)" fill="#6e6f71"/>
          <path id="Path_7346" data-name="Path 7346" d="M47.182,42.7,45.3,48.941h1.486l.4-1.585h1.783l.5,1.585h1.486L49.065,42.7Zm.2,3.566.4-1.288.3-1.189h0l.3,1.189.4,1.288Z" transform="translate(-5.078 -42.502)" fill="#6e6f71"/>
          <path id="Path_7347" data-name="Path 7347" d="M55.166,46.266c0,1.09-.4,1.585-1.09,1.585s-1.09-.5-1.09-1.585V42.7H51.6v3.467c0,1.981.892,2.873,2.477,2.873s2.576-.892,2.576-2.774V42.8H55.266v3.467Z" transform="translate(-5.137 -42.502)" fill="#6e6f71"/>
          <path id="Path_7348" data-name="Path 7348" d="M57.4,43.889h1.684v4.953h1.387V43.889h1.684V42.7H57.4Z" transform="translate(-5.191 -42.502)" fill="#6e6f71"/>
          <path id="Path_7349" data-name="Path 7349" d="M66.665,45.078H64.386V42.7H62.9v6.142h1.486V46.266h2.279v2.576h1.387V42.7H66.665Z" transform="translate(-5.242 -42.502)" fill="#6e6f71"/>
          <path id="Path_7350" data-name="Path 7350" d="M72.072,42.6A3,3,0,0,0,69.1,45.869a2.894,2.894,0,0,0,2.873,3.17,2.969,2.969,0,0,0,3.071-3.269A2.914,2.914,0,0,0,72.072,42.6Zm0,5.251c-.892,0-1.486-.892-1.486-2.08s.594-2.08,1.486-2.08c.991,0,1.486.991,1.486,2.08C73.558,46.959,72.964,47.851,72.072,47.851Z" transform="translate(-5.3 -42.501)" fill="#6e6f71"/>
          <path id="Path_7351" data-name="Path 7351" d="M79.368,45.968h0a1.786,1.786,0,0,0,1.09-1.585,1.472,1.472,0,0,0-.594-1.288,2.8,2.8,0,0,0-1.981-.5c-.693,0-1.387.1-1.882.1v6.142h1.387V46.365h.4c.594,0,.793.2.991.991a12.573,12.573,0,0,0,.4,1.486h1.387c-.1-.2-.3-1.09-.5-1.783A1.429,1.429,0,0,0,79.368,45.968Zm-1.486-.5h-.594V43.789h.594c.594,0,.991.3.991.892C79.071,45.077,78.576,45.473,77.882,45.473Z" transform="translate(-5.364 -42.501)" fill="#6e6f71"/>
          <rect id="Rectangle_1785" data-name="Rectangle 1785" width="1.387" height="6.241" transform="translate(76.085 0.198)" fill="#6e6f71"/>
          <path id="Path_7352" data-name="Path 7352" d="M83.6,43.889h1.684v4.953h1.387V43.889h1.684V42.7H83.6Z" transform="translate(-5.435 -42.502)" fill="#6e6f71"/>
          <path id="Path_7353" data-name="Path 7353" d="M91.97,44.186c-.2.4-.3.793-.5,1.189h0c-.2-.4-.3-.693-.5-1.189L90.385,42.7H88.8l1.981,3.666v2.576h1.387V46.366l2.08-3.566H92.664Z" transform="translate(-5.483 -42.502)" fill="#6e6f71"/>
          <path id="Path_7354" data-name="Path 7354" d="M99.472,42.6A3,3,0,0,0,96.5,45.869a2.894,2.894,0,0,0,2.873,3.17,2.969,2.969,0,0,0,3.071-3.269C102.345,43.987,101.354,42.6,99.472,42.6Zm0,5.251c-.892,0-1.486-.892-1.486-2.08s.594-2.08,1.486-2.08c.991,0,1.486.991,1.486,2.08C100.958,46.959,100.364,47.851,99.472,47.851Z" transform="translate(-5.555 -42.501)" fill="#6e6f71"/>
          <path id="Path_7355" data-name="Path 7355" d="M103.4,48.842h1.387V46.366h2.18v-1.09h-2.18V43.889h2.378V42.7H103.4Z" transform="translate(-5.619 -42.502)" fill="#6e6f71"/>
          <rect id="Rectangle_1786" data-name="Rectangle 1786" width="1.387" height="6.241" transform="translate(104.418 0.198)" fill="#6e6f71"/>
          <path id="Path_7356" data-name="Path 7356" d="M115.173,45.176c-.793-.3-1.189-.5-1.189-.892,0-.3.3-.594.892-.594a3.041,3.041,0,0,1,1.288.3l.3-1.09a3.473,3.473,0,0,0-1.585-.3c-1.486,0-2.378.793-2.378,1.882,0,.892.693,1.486,1.684,1.783.793.3.991.5.991.892s-.3.693-.991.693a3.733,3.733,0,0,1-1.585-.4l-.3,1.189a4.318,4.318,0,0,0,1.783.4c1.684,0,2.477-.892,2.477-1.882C116.758,46.166,116.263,45.572,115.173,45.176Z" transform="translate(-5.702 -42.501)" fill="#6e6f71"/>
          <path id="Path_7357" data-name="Path 7357" d="M119.187,42.7H117.8v6.142h3.864v-1.09h-2.477Z" transform="translate(-5.754 -42.502)" fill="#6e6f71"/>
          <path id="Path_7358" data-name="Path 7358" d="M123.982,42.7,122.1,48.941h1.486l.4-1.585h1.783l.5,1.585h1.486L125.865,42.7Zm.2,3.566.4-1.288.3-1.189h0l.3,1.189.4,1.288Z" transform="translate(-5.794 -42.502)" fill="#6e6f71"/>
          <path id="Path_7359" data-name="Path 7359" d="M133.156,42.7l-.693,2.08c-.2.693-.4,1.486-.594,2.18h0a17.259,17.259,0,0,0-.5-2.18l-.594-2.08H128.9l-.4,6.241h1.288l.1-2.378c0-.793.1-1.684.1-2.576h0a22.467,22.467,0,0,0,.594,2.477l.693,2.378h1.09l.793-2.378c.2-.693.5-1.585.693-2.378h0a21.549,21.549,0,0,0,.1,2.576l.1,2.378h1.387l-.3-6.241h-1.981Z" transform="translate(-5.853 -42.502)" fill="#6e6f71"/>
          <rect id="Rectangle_1787" data-name="Rectangle 1787" width="1.387" height="6.241" transform="translate(130.572 0.198)" fill="#6e6f71"/>
          <path id="Path_7360" data-name="Path 7360" d="M142.268,43.789a3.7,3.7,0,0,1,1.189.2l.3-1.09a3.77,3.77,0,0,0-1.486-.3,3.145,3.145,0,0,0-3.368,3.269,2.92,2.92,0,0,0,3.269,3.071,4.417,4.417,0,0,0,1.585-.3l-.2-1.09a4.257,4.257,0,0,1-1.189.2,1.822,1.822,0,0,1-1.981-1.981A1.709,1.709,0,0,1,142.268,43.789Z" transform="translate(-5.95 -42.501)" fill="#6e6f71"/>
          <path id="Path_7361" data-name="Path 7361" d="M147.982,42.7,146.1,48.941h1.486l.4-1.585h1.783l.5,1.585h1.486L149.865,42.7Zm.2,3.566.4-1.288.3-1.189h0l.3,1.189.4,1.288Z" transform="translate(-6.017 -42.502)" fill="#6e6f71"/>
          <path id="Path_7362" data-name="Path 7362" d="M152.6,48.842h1.387V46.366h2.279v-1.09h-2.279V43.889h2.378V42.7H152.6Z" transform="translate(-6.078 -42.502)" fill="#6e6f71"/>
          <path id="Path_7363" data-name="Path 7363" d="M158.887,43.889h2.378V42.7H157.5v6.142h1.387V46.366h2.279v-1.09h-2.279Z" transform="translate(-6.123 -42.502)" fill="#6e6f71"/>
          <path id="Path_7364" data-name="Path 7364" d="M163.182,42.7,161.3,48.941h1.486l.4-1.585h1.783l.5,1.585h1.486L165.065,42.7Zm.2,3.566.4-1.288.3-1.189h0l.3,1.189.4,1.288Z" transform="translate(-6.159 -42.502)" fill="#6e6f71"/>
          <rect id="Rectangle_1788" data-name="Rectangle 1788" width="1.387" height="6.241" transform="translate(161.581 0.198)" fill="#6e6f71"/>
          <path id="Path_7365" data-name="Path 7365" d="M173.868,45.968h0a1.786,1.786,0,0,0,1.09-1.585,1.472,1.472,0,0,0-.594-1.288,2.8,2.8,0,0,0-1.981-.5c-.793,0-1.387.1-1.882.1v6.142h1.387V46.365h.4c.594,0,.793.2.991.991a12.575,12.575,0,0,0,.4,1.486h1.387c-.1-.2-.3-1.09-.5-1.783A1.429,1.429,0,0,0,173.868,45.968Zm-1.486-.5h-.594V43.789h.594c.594,0,.991.3.991.892C173.571,45.077,173.076,45.473,172.382,45.473Z" transform="translate(-6.244 -42.501)" fill="#6e6f71"/>
          <path id="Path_7366" data-name="Path 7366" d="M178.373,45.176c-.793-.3-1.189-.5-1.189-.892,0-.3.3-.594.892-.594a3.041,3.041,0,0,1,1.288.3l.3-1.09a3.474,3.474,0,0,0-1.585-.3c-1.486,0-2.378.793-2.378,1.882,0,.892.693,1.486,1.684,1.783.693.3.991.5.991.892s-.3.693-.991.693a3.733,3.733,0,0,1-1.585-.4l-.3,1.189a4.318,4.318,0,0,0,1.783.4c1.684,0,2.477-.892,2.477-1.882C179.958,46.166,179.463,45.572,178.373,45.176Z" transform="translate(-6.291 -42.501)" fill="#6e6f71"/>
          <path id="Path_7367" data-name="Path 7367" d="M188.345,45.274h-1.288a5.221,5.221,0,0,1-.5,1.486,12.577,12.577,0,0,1-.991-1.189h0a1.7,1.7,0,0,0,1.189-1.585,1.516,1.516,0,0,0-1.684-1.486,1.778,1.778,0,0,0-1.882,1.585,1.641,1.641,0,0,0,.5,1.189h0a2.07,2.07,0,0,0-1.189,1.783c0,.892.693,1.783,2.18,1.783a2.834,2.834,0,0,0,1.684-.5c.1.2.3.3.4.4h1.585c-.4-.4-.693-.793-1.09-1.189A3.806,3.806,0,0,0,188.345,45.274Zm-3.269-1.783h0a.571.571,0,0,1,.594.594c0,.4-.2.594-.693.892a1.21,1.21,0,0,1-.4-.892A.455.455,0,0,1,185.076,43.491Zm-.2,4.458h0a.993.993,0,0,1-.991-.991,1.04,1.04,0,0,1,.5-.892c.5.594.991,1.09,1.387,1.486A.966.966,0,0,1,184.878,47.949Z" transform="translate(-6.356 -42.5)" fill="#6e6f71"/>
          <path id="Path_7368" data-name="Path 7368" d="M192.387,46.266h2.279V45.078h-2.279V43.889h2.477V42.7H191v6.142h3.963v-1.09h-2.576Z" transform="translate(-6.435 -42.502)" fill="#6e6f71"/>
          <path id="Path_7369" data-name="Path 7369" d="M199.765,44.483a21.545,21.545,0,0,0,.1,2.576h0c-.3-.693-.693-1.486-.991-2.08L197.585,42.7H196v6.241h1.288V47.059a22.408,22.408,0,0,0-.1-2.675h0a22.349,22.349,0,0,0,1.09,2.18l1.288,2.378h1.486V42.7h-1.288Z" transform="translate(-6.482 -42.502)" fill="#6e6f71"/>
          <path id="Path_7370" data-name="Path 7370" d="M206.758,43.293a3.812,3.812,0,0,0-2.576-.693,10.789,10.789,0,0,0-1.882.1v6.043c.4,0,.892.1,1.585.1a4.939,4.939,0,0,0,2.873-.793,3.045,3.045,0,0,0,.991-2.477A2.4,2.4,0,0,0,206.758,43.293Zm-2.477,4.557h-.5V43.789a3.5,3.5,0,0,1,.594-.1,1.823,1.823,0,0,1,1.981,1.981A1.911,1.911,0,0,1,204.281,47.851Z" transform="translate(-6.541 -42.501)" fill="#6e6f71"/>
          <path id="Path_7371" data-name="Path 7371" d="M211.572,42.6a3,3,0,0,0-2.972,3.269,2.894,2.894,0,0,0,2.873,3.17,2.969,2.969,0,0,0,3.071-3.269C214.445,43.987,213.454,42.6,211.572,42.6Zm0,5.251c-.892,0-1.486-.892-1.486-2.08s.594-2.08,1.486-2.08c.991,0,1.486.991,1.486,2.08C213.058,46.959,212.464,47.851,211.572,47.851Z" transform="translate(-6.599 -42.501)" fill="#6e6f71"/>
          <path id="Path_7372" data-name="Path 7372" d="M220.944,45.277c-.1.693-.3,1.486-.4,2.18h0l-.3-2.08-.5-2.576h-1.486l-.5,2.576a20.481,20.481,0,0,0-.4,2.179h0c-.1-.594-.2-1.387-.4-2.179l-.5-2.576H215l1.486,6.241h1.486l.594-2.675a16.1,16.1,0,0,1,.4-1.882h0c.1.693.2,1.288.3,1.882l.5,2.675h1.486l1.585-6.241h-1.387Z" transform="translate(-6.659 -42.503)" fill="#6e6f71"/>
          <path id="Path_7373" data-name="Path 7373" d="M228.156,42.7l-.693,2.08c-.2.693-.4,1.486-.594,2.18h0a17.256,17.256,0,0,0-.5-2.18l-.594-2.08H223.9l-.4,6.241h1.288l.1-2.378c0-.793.1-1.684.1-2.576h0c.2.793.4,1.684.594,2.477l.693,2.378h1.09l.793-2.378c.2-.693.5-1.585.693-2.378h0a21.555,21.555,0,0,0,.1,2.576l.1,2.378h1.387l-.3-6.241h-1.981Z" transform="translate(-6.738 -42.502)" fill="#6e6f71"/>
          <path id="Path_7374" data-name="Path 7374" d="M232.887,46.266h2.279V45.078h-2.279V43.889h2.378V42.7H231.5v6.142h3.963v-1.09h-2.576Z" transform="translate(-6.813 -42.502)" fill="#6e6f71"/>
          <path id="Path_7375" data-name="Path 7375" d="M240.265,44.483a21.542,21.542,0,0,0,.1,2.576h0a13.427,13.427,0,0,0-.991-2.08L238.085,42.7H236.5v6.241h1.288V47.059a22.4,22.4,0,0,0-.1-2.675h0a22.353,22.353,0,0,0,1.09,2.18l1.288,2.378h1.486V42.7h-1.288Z" transform="translate(-6.859 -42.502)" fill="#6e6f71"/>
          <path id="Path_7376" data-name="Path 7376" d="M242.4,43.889h1.585v4.953h1.486V43.889h1.684V42.7H242.4Z" transform="translate(-6.914 -42.502)" fill="#6e6f71"/>
          <path id="Path_7377" data-name="Path 7377" d="M250.273,45.176c-.793-.3-1.189-.5-1.189-.892,0-.3.3-.594.892-.594a3.042,3.042,0,0,1,1.288.3l.3-1.09a3.474,3.474,0,0,0-1.585-.3c-1.486,0-2.378.793-2.378,1.882,0,.892.693,1.486,1.684,1.783.693.3.991.5.991.892s-.3.693-.991.693a3.732,3.732,0,0,1-1.585-.4l-.3,1.189a3.637,3.637,0,0,0,1.783.4c1.684,0,2.477-.892,2.477-1.882C251.858,46.166,251.363,45.572,250.273,45.176Z" transform="translate(-6.961 -42.501)" fill="#6e6f71"/>
        </g>
      </g>
    </g>
    <g id="Group_4632" data-name="Group 4632" transform="translate(1689.273 29.443)">
      <path id="Path_7378" data-name="Path 7378" d="M322.4,28.9h0a40.465,40.465,0,0,1,8.378,20.177c1.539,13.337.342,19.151-.171,20.519-1.881-.513-3.933-1.026-6.327-1.539C328.214,50.273,323.255,30.952,322.4,28.9Z" transform="translate(-228.925 13.321)" fill="url(#linear-gradient)"/>
      <path id="Path_7379" data-name="Path 7379" d="M340.068,55.353c-7.524-25.819-23.254-37.1-27.187-40.353A20.494,20.494,0,0,1,311,17.052,99.5,99.5,0,0,1,340.068,55.353Z" transform="translate(-237.017 3.653)" fill="url(#linear-gradient-2)"/>
      <path id="Path_7380" data-name="Path 7380" d="M339.287,55.921c-7.524-25.819-23.254-37.1-27.187-40.353a9.778,9.778,0,0,1,1.368-1.368C335.354,28.221,339.287,55.921,339.287,55.921Z" transform="translate(-236.236 3.093)" fill="url(#linear-gradient-3)"/>
      <path id="Path_7381" data-name="Path 7381" d="M319.7,25.9c.171.171.342.171.342.342a41.928,41.928,0,0,1,4.1,4.617v.171C325,32.911,329.959,52.4,326.2,70.357c-1.881-.342-3.762-.684-5.985-1.026C321.581,65.74,329.959,42.828,319.7,25.9Z" transform="translate(-230.841 11.213)" fill="#b3b3b3"/>
      <path id="Path_7382" data-name="Path 7382" d="M319.7,25.9c.171.171.342.171.342.342a41.928,41.928,0,0,1,4.1,4.617v.171C325,32.911,329.959,52.4,326.2,70.357c-1.881-.342-3.762-.684-5.985-1.026C321.581,65.74,329.959,42.828,319.7,25.9Z" transform="translate(-230.841 11.213)" fill="url(#linear-gradient-4)"/>
      <path id="Path_7383" data-name="Path 7383" d="M311.71,16.2c2.907,2.394,12.311,11.114,15.731,14.7,18.3,19.493,16.073,44.457,15.389,49.073-1.026-.342-2.223-.684-3.591-1.2.513-1.539,1.71-7.352.171-20.519a40.334,40.334,0,0,0-8.378-20.348q-2.565-3.078-4.1-4.617l-.855-.855C324.021,30.392,312.736,20.475,310,18.252,310.342,17.739,311.026,17.055,311.71,16.2Z" transform="translate(-237.727 4.382)" fill="#010101"/>
      <path id="Path_7384" data-name="Path 7384" d="M310.64,13.575c5.984,4.1,11.114,7.01,12.482,7.865h0l-1.368,1.368a20.493,20.493,0,0,1-1.881,2.052l-1.881,1.881h0c-5.985-5.13-11.114-9.233-14.192-13.337A37.649,37.649,0,0,1,298.5,4C302.6,7.591,306.878,10.84,310.64,13.575Z" transform="translate(-245.891 -4)" fill="url(#linear-gradient-5)"/>
      <path id="Path_7385" data-name="Path 7385" d="M329.1,38.6Z" transform="translate(-224.169 20.264)" fill="#fff"/>
      <path id="Path_7386" data-name="Path 7386" d="M329.1,38.6Z" transform="translate(-224.169 20.264)" fill="#fff"/>
      <path id="Path_7387" data-name="Path 7387" d="M278.693,28.9h0a40.466,40.466,0,0,0-8.378,20.177c-1.539,13.337-.342,19.151.171,20.519,1.881-.513,3.933-1.026,6.327-1.539C272.879,50.273,277.838,30.952,278.693,28.9Z" transform="translate(-266.437 13.321)" fill="url(#linear-gradient-6)"/>
      <path id="Path_7388" data-name="Path 7388" d="M269.2,55.353c7.524-25.819,23.254-37.1,27.187-40.353a20.492,20.492,0,0,0,1.881,2.052A103.136,103.136,0,0,0,269.2,55.353Z" transform="translate(-266.69 3.653)" fill="url(#linear-gradient-7)"/>
      <path id="Path_7389" data-name="Path 7389" d="M269.2,55.921c7.524-25.819,23.254-37.1,27.187-40.353a9.785,9.785,0,0,0-1.368-1.368C273.3,28.221,269.2,55.921,269.2,55.921Z" transform="translate(-266.69 3.093)" fill="url(#linear-gradient-8)"/>
      <path id="Path_7390" data-name="Path 7390" d="M280.876,25.9c-.171.171-.342.171-.342.342a41.935,41.935,0,0,0-4.1,4.617v.171c-.855,1.881-5.814,21.373-2.052,39.327,1.881-.342,3.762-.684,5.985-1.026C278.995,65.74,270.445,42.828,280.876,25.9Z" transform="translate(-264.003 11.213)" fill="#b3b3b3"/>
      <path id="Path_7391" data-name="Path 7391" d="M280.876,25.9c-.171.171-.342.171-.342.342a41.935,41.935,0,0,0-4.1,4.617v.171c-.855,1.881-5.814,21.373-2.052,39.327,1.881-.342,3.762-.684,5.985-1.026C278.995,65.74,270.445,42.828,280.876,25.9Z" transform="translate(-264.003 11.213)" fill="url(#linear-gradient-9)"/>
      <path id="Path_7392" data-name="Path 7392" d="M299.31,16.2C296.4,18.594,287,27.314,283.579,30.9c-18.3,19.493-16.073,44.457-15.389,49.073,1.026-.342,2.223-.684,3.591-1.2-.513-1.539-1.71-7.352-.171-20.519a40.335,40.335,0,0,1,8.378-20.348q2.565-3.078,4.1-4.617l.855-.855C287,30.392,298.284,20.475,301.02,18.252,300.678,17.739,299.994,17.055,299.31,16.2Z" transform="translate(-267.732 4.382)" fill="#010101"/>
      <path id="Path_7393" data-name="Path 7393" d="M296.782,13.575c-5.985,4.1-11.114,7.01-12.482,7.865h0l1.368,1.368a20.489,20.489,0,0,0,1.881,2.052l1.881,1.881h0c5.985-5.13,11.114-9.233,14.021-13.337a37.651,37.651,0,0,0,5.3-9.4A101.249,101.249,0,0,1,296.782,13.575Z" transform="translate(-255.971 -4)" fill="url(#linear-gradient-10)"/>
      <path id="Path_7394" data-name="Path 7394" d="M268.2,38.6Z" transform="translate(-267.4 20.264)" fill="#fff"/>
      <path id="Path_7395" data-name="Path 7395" d="M268.2,38.6Z" transform="translate(-267.4 20.264)" fill="#fff"/>
      <path id="Path_7396" data-name="Path 7396" d="M268.1,55.2s.342,11.456,1.368,14.7A109.411,109.411,0,0,0,268.1,55.2Z" transform="translate(-267.471 31.832)" fill="#4d4d4d"/>
      <path id="Path_7397" data-name="Path 7397" d="M329.368,55.2S329.026,66.656,328,69.9A72.471,72.471,0,0,1,329.368,55.2Z" transform="translate(-224.949 31.832)" fill="#4d4d4d"/>
      <path id="Path_7398" data-name="Path 7398" d="M372.4,57.392s-18.98-7.523-52.151-7.181C287.08,49.7,268.1,57.392,268.1,57.392a222.106,222.106,0,0,1,52.151-5.3h0A222.107,222.107,0,0,1,372.4,57.392Z" transform="translate(-267.471 28.359)" fill="#4d4d4d"/>
      <path id="Path_7399" data-name="Path 7399" d="M295.039,63.185c0-5.814,2.394-10.43,6.327-10.43s7.181,4.617,7.181,10.43a10.521,10.521,0,0,1-.171,2.394h1.368a11.283,11.283,0,0,0,.171-2.394c0-6.156-3.591-11.285-8.207-11.285-4.446,0-8.207,4.959-8.207,11.285a10.521,10.521,0,0,0,.171,2.394h1.2A10.521,10.521,0,0,0,295.039,63.185Z" transform="translate(-249.44 29.489)" fill="#4d4d4d"/>
      <path id="Path_7400" data-name="Path 7400" d="M318.253,62.562c0-4.617-2.565-8.378-5.814-8.378s-5.813,3.762-5.813,8.378a6.416,6.416,0,0,0,.171,1.881h-1.026a7.013,7.013,0,0,1-.171-1.881c0-4.959,2.907-9.062,6.5-9.062s6.5,4.1,6.5,9.062a6.412,6.412,0,0,1-.171,1.881h-.342A6.412,6.412,0,0,0,318.253,62.562Z" transform="translate(-240.851 30.625)" fill="#4d4d4d"/>
      <path id="Path_7401" data-name="Path 7401" d="M324.9,62.469c0-3.42-1.881-6.156-4.275-6.156s-4.275,2.736-4.275,6.156a4.733,4.733,0,0,0,.171,1.539h-.855c0-.513-.171-1.026-.171-1.539,0-3.762,2.223-6.669,4.959-6.669s4.959,3.078,4.959,6.669a4.734,4.734,0,0,1-.171,1.539H324.9Z" transform="translate(-233.823 32.258)" fill="#4d4d4d"/>
      <path id="Path_7402" data-name="Path 7402" d="M329.727,62.246c0-2.223-1.368-4.1-2.907-4.1s-2.907,1.881-2.907,4.1v1.026H323.4V62.246c0-2.565,1.368-4.446,3.249-4.446,1.71,0,3.249,2.052,3.249,4.446v1.026h-.171Q329.727,62.759,329.727,62.246Z" transform="translate(-228.215 33.678)" fill="#4d4d4d"/>
      <path id="Path_7403" data-name="Path 7403" d="M283.842,62.562c0-4.617,2.565-8.378,5.814-8.378s5.814,3.762,5.814,8.378a6.408,6.408,0,0,1-.171,1.881h1.026a7.015,7.015,0,0,0,.171-1.881c0-4.959-2.907-9.062-6.5-9.062s-6.5,4.1-6.5,9.062a6.408,6.408,0,0,0,.171,1.881h.342A6.41,6.41,0,0,1,283.842,62.562Z" transform="translate(-256.539 30.625)" fill="#4d4d4d"/>
      <path id="Path_7404" data-name="Path 7404" d="M276.013,62.469c0-3.42,1.881-6.156,4.275-6.156s4.275,2.736,4.275,6.156a4.735,4.735,0,0,1-.171,1.539h.855c0-.513.171-1.026.171-1.539,0-3.762-2.223-6.669-4.959-6.669s-4.959,3.078-4.959,6.669a4.733,4.733,0,0,0,.171,1.539h.342Q276.013,63.238,276.013,62.469Z" transform="translate(-262.218 32.258)" fill="#4d4d4d"/>
      <path id="Path_7405" data-name="Path 7405" d="M270.171,62.246c0-2.223,1.368-4.1,2.907-4.1s2.907,1.881,2.907,4.1v1.026h.513V62.246c0-2.565-1.368-4.446-3.249-4.446-1.71,0-3.249,2.052-3.249,4.446v1.026h.171Z" transform="translate(-266.122 33.678)" fill="#4d4d4d"/>
    </g>
  </g>
</svg>
